<svg width="24.000000" height="24.000000" viewBox="0 0 24 24" fill="none" xmlns="http://www.w3.org/2000/svg" xmlns:xlink="http://www.w3.org/1999/xlink">
	<desc>
			Created with Pixso.
	</desc>
	<defs>
		<clipPath id="clip244_3074">
			<rect id="icon/help" width="24.000000" height="24.000000" fill="white" fill-opacity="0"/>
		</clipPath>
	</defs>
	<g clip-path="url(#clip244_3074)">
		<path id="Vector" d="M12 22C6.47 22 2 17.52 2 12C2 6.47 6.47 2 12 2C17.52 2 22 6.47 22 12C22 17.52 17.52 22 12 22ZM10 9C10 7.89 10.89 7 12 7C13.1 7 14 7.89 14 9C14 9.39 13.88 9.76 13.68 10.08C13.08 11 12 11.89 12 13L12 13.5M12 16L12 17" stroke="#000000" stroke-opacity="0.900000" stroke-width="1.500000" stroke-linejoin="round"/>
	</g>
</svg>
