<svg width="24.000000" height="24.000000" viewBox="0 0 24 24" fill="none" xmlns="http://www.w3.org/2000/svg" xmlns:xlink="http://www.w3.org/1999/xlink">
	<desc>
			Created with Pixso.
	</desc>
	<defs>
		<clipPath id="clip243_3009">
			<rect id="icon/logout" width="24.000000" height="24.000000" fill="white" fill-opacity="0"/>
		</clipPath>
	</defs>
	<g clip-path="url(#clip243_3009)">
		<path id="Vector 773" d="M18 14L19.29 12.7C19.68 12.31 19.68 11.68 19.29 11.29L18 10" stroke="#000000" stroke-opacity="0.900000" stroke-width="1.500000" stroke-linejoin="round" stroke-linecap="round"/>
		<path id="Vector" d="M19 12L13 12M4 17.26L4 7.26M16 17.26C16 18.37 15.1 19.26 14 19.26L10 19.26M10 5.26L14 5.26C15.1 5.26 16 6.16 16 7.26M6.89 3.33C8.21 2.45 10 3.4 10 5L10 19.52C10 21.12 8.21 22.07 6.89 21.19L4.89 19.86C4.33 19.48 4 18.86 4 18.19L4 6.33C4 5.66 4.33 5.04 4.89 4.67L6.89 3.33Z" stroke="#000000" stroke-opacity="0.900000" stroke-width="1.500000"/>
	</g>
</svg>
