<svg width="24.000000" height="24.000000" viewBox="0 0 24 24" fill="none" xmlns="http://www.w3.org/2000/svg" xmlns:xlink="http://www.w3.org/1999/xlink">
	<desc>
			Created with Pixso.
	</desc>
	<defs>
		<clipPath id="clip238_1989">
			<rect id="icon/folder download" width="24.000000" height="24.000000" fill="white" fill-opacity="0"/>
		</clipPath>
	</defs>
	<g clip-path="url(#clip238_1989)">
		<path id="Vector" d="M22 17C22 19.2 20.2 21 18 21L6 21C3.79 21 2 19.2 2 17L2 7C2 4.79 3.79 3 6 3L8.66 3C9.53 3 10.37 3.28 11.06 3.8L12.93 5.19C13.62 5.71 14.46 6 15.33 6L18 6C20.2 6 22 7.79 22 10L22 17ZM9 13L10.58 14.58C11.36 15.36 12.63 15.36 13.41 14.58L15 13M12 15L12 10" stroke="#000000" stroke-opacity="0.900000" stroke-width="1.500000"/>
	</g>
</svg>
