<svg width="24.000000" height="24.000000" viewBox="0 0 24 24" fill="none" xmlns="http://www.w3.org/2000/svg" xmlns:xlink="http://www.w3.org/1999/xlink">
	<desc>
			Created with Pixso.
	</desc>
	<defs>
		<clipPath id="clip300_2329">
			<rect id="icon/map" width="24.000000" height="24.000000" fill="white" fill-opacity="0"/>
		</clipPath>
	</defs>
	<g clip-path="url(#clip300_2329)">
		<path id="Vector" d="M8 4.02C11.31 3.65 12.68 7.58 16 7.21C17.41 7.05 19.05 6.13 20.26 5.32C20.97 4.84 22 5.34 22 6.19L22 15.86C22 16.44 21.74 17 21.27 17.35C20.14 18.21 17.86 19.76 16 19.97C12.68 20.34 11.31 16.41 8 16.78C6.58 16.94 4.94 17.86 3.73 18.67C3.02 19.15 2 18.65 2 17.8L2 8.13C2 7.55 2.25 6.99 2.72 6.64C3.85 5.78 6.13 4.23 8 4.02ZM8 4.02L8 16.78M16 7.21L16 19.97" stroke="#000000" stroke-opacity="0.900000" stroke-width="1.500000"/>
	</g>
</svg>
