<svg width="24" height="24" viewBox="0 0 24 24" fill="none" xmlns="http://www.w3.org/2000/svg">
<path d="M11.7432 18.69H13.1773C13.1773 18.69 13.6108 18.64 13.8314 18.3918C14.0354 18.1639 14.0279 17.7362 14.0279 17.7362C14.0279 17.7362 13.9994 15.7334 14.8934 15.4383C15.774 15.148 16.9051 17.374 18.1037 18.231C19.0097 18.8789 19.6983 18.7368 19.6983 18.7368L22.904 18.69C22.904 18.69 24.5811 18.5823 23.7861 17.2101C23.7216 17.0977 23.3225 16.1954 21.4024 14.3409C19.3923 12.399 19.6623 12.7143 22.0835 9.35652C23.5581 7.31156 24.1476 6.06273 23.9631 5.52886C23.7876 5.01996 22.703 5.15421 22.703 5.15421L19.0967 5.17606C19.0967 5.17606 18.8297 5.1386 18.6302 5.26192C18.4367 5.38368 18.3122 5.66467 18.3122 5.66467C18.3122 5.66467 17.7406 7.24756 16.9786 8.59317C15.372 11.4327 14.7284 11.5826 14.4659 11.4062C13.8554 10.9956 14.0084 9.75459 14.0084 8.87416C14.0084 6.12205 14.4089 4.97469 13.2268 4.67809C12.8338 4.57975 12.5458 4.51418 11.5422 4.50325C10.2551 4.4892 9.16451 4.50794 8.54796 4.82171C8.13693 5.03089 7.82041 5.49764 8.01392 5.52417C8.25244 5.55695 8.79248 5.67559 9.079 6.08146C9.44953 6.60441 9.43603 7.78143 9.43603 7.78143C9.43603 7.78143 9.64904 11.0206 8.93949 11.4233C8.45196 11.6996 7.78441 11.1361 6.3518 8.55883C5.61825 7.23975 5.06321 5.78018 5.06321 5.78018C5.06321 5.78018 4.9567 5.50856 4.76618 5.36339C4.53517 5.18699 4.21114 5.13079 4.21114 5.13079L0.781892 5.15265C0.781892 5.15265 0.267355 5.16826 0.0783406 5.40085C-0.0896717 5.60847 0.0648396 6.03619 0.0648396 6.03619C0.0648396 6.03619 2.75004 12.5723 5.78926 15.8676C8.57796 18.8882 11.7432 18.69 11.7432 18.69Z" fill="black" fill-opacity="0.9"/>
</svg>
