<svg width="24" height="24" viewBox="0 0 24 24" fill="none" xmlns="http://www.w3.org/2000/svg">
<path d="M12.0023 3H11.9978C7.03538 3 3.00001 7.0365 3.00001 12C2.99693 13.8956 3.59699 15.7431 4.71339 17.2751L3.59176 20.6186L7.05113 19.5127C8.51855 20.4863 10.2413 21.0038 12.0023 21C16.9646 21 21 16.9624 21 12C21 7.03762 16.9646 3 12.0023 3ZM17.2391 15.7091C17.022 16.3222 16.1603 16.8307 15.4729 16.9792C15.0026 17.0794 14.3884 17.1592 12.3206 16.302C9.67576 15.2062 7.97251 12.5186 7.83976 12.3442C7.71263 12.1699 6.77101 10.9211 6.77101 9.62962C6.77101 8.33812 7.42688 7.70924 7.69126 7.43924C7.90838 7.21762 8.26726 7.11637 8.61151 7.11637C8.72288 7.11637 8.82301 7.12199 8.91301 7.1265C9.17738 7.13775 9.31013 7.1535 9.48451 7.57087C9.70163 8.09399 10.2304 9.38549 10.2934 9.51824C10.3575 9.65099 10.4216 9.83099 10.3316 10.0054C10.2473 10.1854 10.173 10.2652 10.0403 10.4182C9.90751 10.5712 9.78151 10.6882 9.64876 10.8525C9.52726 10.9954 9.39001 11.1484 9.54301 11.4127C9.69601 11.6715 10.2248 12.5344 11.0033 13.2274C12.0079 14.1217 12.8224 14.4075 13.1138 14.529C13.3309 14.619 13.5896 14.5976 13.7483 14.4289C13.9496 14.2117 14.1983 13.8517 14.4514 13.4974C14.6314 13.2431 14.8586 13.2116 15.0971 13.3016C15.3401 13.386 16.626 14.0216 16.8904 14.1532C17.1548 14.286 17.3291 14.349 17.3933 14.4604C17.4563 14.5717 17.4563 15.0949 17.2391 15.7091Z" fill="black" fill-opacity="0.9"/>
</svg>
